<?xml version="1.0" encoding="UTF-8"?>
<!DOCTYPE svg PUBLIC "-//W3C//DTD SVG 1.1//EN" "http://www.w3.org/Graphics/SVG/1.1/DTD/svg11.dtd">
<svg xmlns="http://www.w3.org/2000/svg" version="1.1" width="512px" height="512px" style="shape-rendering:geometricPrecision; text-rendering:geometricPrecision; image-rendering:optimizeQuality; fill-rule:evenodd; clip-rule:evenodd" xmlns:xlink="http://www.w3.org/1999/xlink">
<g><path style="opacity:0.997" fill="#e5ebff" d="M 454.5,403.5 C 402.945,337.099 334.778,303.765 250,303.5C 169.602,306.944 105.102,340.277 56.5,403.5C 28.2847,366.387 12.118,324.387 8,277.5C 2.42923,191.512 31.9292,120.345 96.5,64C 163.769,11.2101 239.102,-4.78986 322.5,16C 402.613,40.4457 458.113,91.6124 489,169.5C 515.629,248.903 506.629,323.903 462,394.5C 459.636,397.69 457.136,400.69 454.5,403.5 Z"/></g>
<g><path style="opacity:1" fill="#4294ff" d="M 242.5,79.5 C 293.07,76.9518 327.903,98.9518 347,145.5C 357.861,186.569 347.694,221.402 316.5,250C 282.875,274.725 247.209,278.058 209.5,260C 173.012,237.86 156.512,205.36 160,162.5C 169.68,116.987 197.18,89.3201 242.5,79.5 Z"/></g>
<g><path style="opacity:1" fill="#4394ff" d="M 454.5,403.5 C 426.153,442.835 389.153,470.835 343.5,487.5C 341.447,487.402 339.78,488.069 338.5,489.5C 304.647,501.756 269.647,506.256 233.5,503C 223.667,502.286 214,500.786 204.5,498.5C 202.162,496.96 199.495,496.294 196.5,496.5C 156.458,487.317 121.458,468.984 91.5,441.5C 90.0892,439.086 88.0892,437.419 85.5,436.5C 74.1872,426.821 64.5205,415.821 56.5,403.5C 105.102,340.277 169.602,306.944 250,303.5C 334.778,303.765 402.945,337.099 454.5,403.5 Z"/></g>
<g><path style="opacity:0.961" fill="#95beff" d="M 85.5,436.5 C 88.0892,437.419 90.0892,439.086 91.5,441.5C 88.9108,440.581 86.9108,438.914 85.5,436.5 Z"/></g>
<g><path style="opacity:0.345" fill="#a6c8ff" d="M 343.5,487.5 C 342.22,488.931 340.553,489.598 338.5,489.5C 339.78,488.069 341.447,487.402 343.5,487.5 Z"/></g>
<g><path style="opacity:0.839" fill="#8ab8ff" d="M 196.5,496.5 C 199.495,496.294 202.162,496.96 204.5,498.5C 201.572,498.435 198.905,497.768 196.5,496.5 Z"/></g>
</svg>
